# xmcd
#
# Track frame offsets: 
#        150
#        32904
#        63539
#        80614
#        133324
#        158577
#        195747
#
# Disc length: 3364 seconds
#
# Revision: 4
# Processed by: cddbd v1.5.2PL0 Copyright (c) Steve Scherf et al.
# Submitted via: ExactAudioCopy v1.0b1
#
DISCID=5f0d2207
DTITLE=Miles Davis - Time After Time  CD1.2
DYEAR=1989
DGENRE=Jazz
TTITLE0=Jilli
TTITLE1=Hannibal
TTITLE2=Intruder
TTITLE3=Star People
TTITLE4=Perfect Way
TTITLE5=Mr. Pastorius
TTITLE6=Human Nature
EXTD=YEAR: 1989
EXTT0=
EXTT1=
EXTT2=
EXTT3=
EXTT4=
EXTT5=
EXTT6=
PLAYORDER=
